<mxfile host="app.diagrams.net" agent="Mozilla/5.0 (Windows NT 10.0; Win64; x64) AppleWebKit/537.36 (KHTML, like Gecko) Chrome/140.0.0.0 Safari/537.36 Edg/140.0.0.0" version="28.2.1">
  <diagram id="RyfTOie8K-avKqhR_qUY" name="ページ1">
    <mxGraphModel dx="778" dy="460" grid="1" gridSize="10" guides="1" tooltips="1" connect="1" arrows="1" fold="1" page="1" pageScale="1" pageWidth="827" pageHeight="1169" math="0" shadow="0">
      <root>
        <mxCell id="0" />
        <mxCell id="1" parent="0" />
        <mxCell id="sT0h8LbhQ2FhiDjcuQEl-7" value="" style="shape=umlLifeline;perimeter=lifelinePerimeter;whiteSpace=wrap;html=1;container=1;dropTarget=0;collapsible=0;recursiveResize=0;outlineConnect=0;portConstraint=eastwest;newEdgeStyle={&quot;curved&quot;:0,&quot;rounded&quot;:0};participant=umlActor;" parent="1" vertex="1">
          <mxGeometry x="110" y="80" width="20" height="100" as="geometry" />
        </mxCell>
        <mxCell id="sT0h8LbhQ2FhiDjcuQEl-8" value="" style="html=1;points=[[0,0,0,0,5],[0,1,0,0,-5],[1,0,0,0,5],[1,1,0,0,-5]];perimeter=orthogonalPerimeter;outlineConnect=0;targetShapes=umlLifeline;portConstraint=eastwest;newEdgeStyle={&quot;curved&quot;:0,&quot;rounded&quot;:0};" parent="1" vertex="1">
          <mxGeometry x="115" y="180" width="10" height="100" as="geometry" />
        </mxCell>
        <mxCell id="sT0h8LbhQ2FhiDjcuQEl-9" value="" style="endArrow=none;dashed=1;html=1;rounded=0;entryX=0.5;entryY=1;entryDx=0;entryDy=0;entryPerimeter=0;" parent="1" target="sT0h8LbhQ2FhiDjcuQEl-8" edge="1">
          <mxGeometry width="50" height="50" relative="1" as="geometry">
            <mxPoint x="120" y="320" as="sourcePoint" />
            <mxPoint x="120" y="260" as="targetPoint" />
          </mxGeometry>
        </mxCell>
        <mxCell id="sT0h8LbhQ2FhiDjcuQEl-12" value="" style="shape=umlLifeline;perimeter=lifelinePerimeter;whiteSpace=wrap;html=1;container=1;dropTarget=0;collapsible=0;recursiveResize=0;outlineConnect=0;portConstraint=eastwest;newEdgeStyle={&quot;curved&quot;:0,&quot;rounded&quot;:0};participant=umlBoundary;fillColor=#d5e8d4;strokeColor=#82b366;" parent="1" vertex="1">
          <mxGeometry x="230" y="80" width="50" height="340" as="geometry" />
        </mxCell>
        <mxCell id="sT0h8LbhQ2FhiDjcuQEl-18" value="" style="html=1;points=[[0,0,0,0,5],[0,1,0,0,-5],[1,0,0,0,5],[1,1,0,0,-5]];perimeter=orthogonalPerimeter;outlineConnect=0;targetShapes=umlLifeline;portConstraint=eastwest;newEdgeStyle={&quot;curved&quot;:0,&quot;rounded&quot;:0};" parent="sT0h8LbhQ2FhiDjcuQEl-12" vertex="1">
          <mxGeometry x="20" y="112.5" width="10" height="77.5" as="geometry" />
        </mxCell>
        <mxCell id="sT0h8LbhQ2FhiDjcuQEl-14" value="" style="shape=umlLifeline;perimeter=lifelinePerimeter;whiteSpace=wrap;html=1;container=1;dropTarget=0;collapsible=0;recursiveResize=0;outlineConnect=0;portConstraint=eastwest;newEdgeStyle={&quot;curved&quot;:0,&quot;rounded&quot;:0};participant=umlBoundary;fillColor=#d5e8d4;strokeColor=#82b366;" parent="1" vertex="1">
          <mxGeometry x="330" y="80" width="50" height="340" as="geometry" />
        </mxCell>
        <mxCell id="sT0h8LbhQ2FhiDjcuQEl-19" value="" style="html=1;points=[[0,0,0,0,5],[0,1,0,0,-5],[1,0,0,0,5],[1,1,0,0,-5]];perimeter=orthogonalPerimeter;outlineConnect=0;targetShapes=umlLifeline;portConstraint=eastwest;newEdgeStyle={&quot;curved&quot;:0,&quot;rounded&quot;:0};" parent="sT0h8LbhQ2FhiDjcuQEl-14" vertex="1">
          <mxGeometry x="20" y="120" width="10" height="60" as="geometry" />
        </mxCell>
        <mxCell id="sT0h8LbhQ2FhiDjcuQEl-28" value="" style="html=1;points=[[0,0,0,0,5],[0,1,0,0,-5],[1,0,0,0,5],[1,1,0,0,-5]];perimeter=orthogonalPerimeter;outlineConnect=0;targetShapes=umlLifeline;portConstraint=eastwest;newEdgeStyle={&quot;curved&quot;:0,&quot;rounded&quot;:0};" parent="sT0h8LbhQ2FhiDjcuQEl-14" vertex="1">
          <mxGeometry x="20" y="245" width="10" height="70" as="geometry" />
        </mxCell>
        <mxCell id="sT0h8LbhQ2FhiDjcuQEl-15" value="" style="shape=umlLifeline;perimeter=lifelinePerimeter;whiteSpace=wrap;html=1;container=1;dropTarget=0;collapsible=0;recursiveResize=0;outlineConnect=0;portConstraint=eastwest;newEdgeStyle={&quot;curved&quot;:0,&quot;rounded&quot;:0};participant=umlEntity;fillColor=#dae8fc;strokeColor=#6c8ebf;" parent="1" vertex="1">
          <mxGeometry x="560" y="80" width="40" height="340" as="geometry" />
        </mxCell>
        <mxCell id="sT0h8LbhQ2FhiDjcuQEl-31" value="" style="html=1;points=[[0,0,0,0,5],[0,1,0,0,-5],[1,0,0,0,5],[1,1,0,0,-5]];perimeter=orthogonalPerimeter;outlineConnect=0;targetShapes=umlLifeline;portConstraint=eastwest;newEdgeStyle={&quot;curved&quot;:0,&quot;rounded&quot;:0};" parent="sT0h8LbhQ2FhiDjcuQEl-15" vertex="1">
          <mxGeometry x="15" y="255" width="10" height="50" as="geometry" />
        </mxCell>
        <mxCell id="sT0h8LbhQ2FhiDjcuQEl-16" value="" style="shape=umlLifeline;perimeter=lifelinePerimeter;whiteSpace=wrap;html=1;container=1;dropTarget=0;collapsible=0;recursiveResize=0;outlineConnect=0;portConstraint=eastwest;newEdgeStyle={&quot;curved&quot;:0,&quot;rounded&quot;:0};participant=umlControl;fillColor=#f8cecc;strokeColor=#b85450;" parent="1" vertex="1">
          <mxGeometry x="440" y="80" width="40" height="340" as="geometry" />
        </mxCell>
        <mxCell id="sT0h8LbhQ2FhiDjcuQEl-30" value="" style="html=1;points=[[0,0,0,0,5],[0,1,0,0,-5],[1,0,0,0,5],[1,1,0,0,-5]];perimeter=orthogonalPerimeter;outlineConnect=0;targetShapes=umlLifeline;portConstraint=eastwest;newEdgeStyle={&quot;curved&quot;:0,&quot;rounded&quot;:0};" parent="sT0h8LbhQ2FhiDjcuQEl-16" vertex="1">
          <mxGeometry x="15" y="250" width="10" height="40" as="geometry" />
        </mxCell>
        <mxCell id="sT0h8LbhQ2FhiDjcuQEl-17" value="" style="html=1;points=[[0,0,0,0,5],[0,1,0,0,-5],[1,0,0,0,5],[1,1,0,0,-5]];perimeter=orthogonalPerimeter;outlineConnect=0;targetShapes=umlLifeline;portConstraint=eastwest;newEdgeStyle={&quot;curved&quot;:0,&quot;rounded&quot;:0};" parent="1" vertex="1">
          <mxGeometry x="115" y="320" width="10" height="100" as="geometry" />
        </mxCell>
        <mxCell id="sT0h8LbhQ2FhiDjcuQEl-20" value="" style="endArrow=classic;html=1;rounded=0;entryX=-0.173;entryY=-0.013;entryDx=0;entryDy=0;entryPerimeter=0;" parent="1" source="sT0h8LbhQ2FhiDjcuQEl-8" target="sT0h8LbhQ2FhiDjcuQEl-18" edge="1">
          <mxGeometry width="50" height="50" relative="1" as="geometry">
            <mxPoint x="450" y="270" as="sourcePoint" />
            <mxPoint x="230" y="195" as="targetPoint" />
          </mxGeometry>
        </mxCell>
        <mxCell id="sT0h8LbhQ2FhiDjcuQEl-21" value="学生登録を選択()" style="text;html=1;align=center;verticalAlign=middle;whiteSpace=wrap;rounded=0;" parent="1" vertex="1">
          <mxGeometry x="130" y="170" width="100" height="30" as="geometry" />
        </mxCell>
        <mxCell id="sT0h8LbhQ2FhiDjcuQEl-22" value="メニュー画面" style="text;html=1;align=center;verticalAlign=middle;whiteSpace=wrap;rounded=0;" parent="1" vertex="1">
          <mxGeometry x="230" y="130" width="60" height="30" as="geometry" />
        </mxCell>
        <mxCell id="sT0h8LbhQ2FhiDjcuQEl-23" value="学生登録画面" style="text;html=1;align=center;verticalAlign=middle;whiteSpace=wrap;rounded=0;" parent="1" vertex="1">
          <mxGeometry x="330" y="130" width="60" height="30" as="geometry" />
        </mxCell>
        <mxCell id="sT0h8LbhQ2FhiDjcuQEl-24" value="学生情&lt;div&gt;報登録&lt;/div&gt;" style="text;html=1;align=center;verticalAlign=middle;whiteSpace=wrap;rounded=0;" parent="1" vertex="1">
          <mxGeometry x="430" y="130" width="60" height="30" as="geometry" />
        </mxCell>
        <mxCell id="sT0h8LbhQ2FhiDjcuQEl-25" value="学生オブジェ&lt;span style=&quot;background-color: transparent; color: light-dark(rgb(0, 0, 0), rgb(255, 255, 255));&quot;&gt;クト&lt;/span&gt;" style="text;html=1;align=center;verticalAlign=middle;whiteSpace=wrap;rounded=0;" parent="1" vertex="1">
          <mxGeometry x="550" y="130" width="60" height="30" as="geometry" />
        </mxCell>
        <mxCell id="sT0h8LbhQ2FhiDjcuQEl-26" value="" style="endArrow=classic;html=1;rounded=0;" parent="1" edge="1">
          <mxGeometry width="50" height="50" relative="1" as="geometry">
            <mxPoint x="260" y="206" as="sourcePoint" />
            <mxPoint x="350" y="206" as="targetPoint" />
          </mxGeometry>
        </mxCell>
        <mxCell id="sT0h8LbhQ2FhiDjcuQEl-27" value="表示()" style="text;html=1;align=center;verticalAlign=middle;whiteSpace=wrap;rounded=0;" parent="1" vertex="1">
          <mxGeometry x="270" y="180" width="60" height="30" as="geometry" />
        </mxCell>
        <mxCell id="sT0h8LbhQ2FhiDjcuQEl-29" value="" style="endArrow=classic;html=1;rounded=0;exitX=1.056;exitY=0.101;exitDx=0;exitDy=0;exitPerimeter=0;" parent="1" edge="1">
          <mxGeometry width="50" height="50" relative="1" as="geometry">
            <mxPoint x="125.56000000000006" y="325.0999999999999" as="sourcePoint" />
            <mxPoint x="350" y="325" as="targetPoint" />
          </mxGeometry>
        </mxCell>
        <mxCell id="sT0h8LbhQ2FhiDjcuQEl-33" value="" style="endArrow=classic;html=1;rounded=0;" parent="1" edge="1">
          <mxGeometry width="50" height="50" relative="1" as="geometry">
            <mxPoint x="360" y="330" as="sourcePoint" />
            <mxPoint x="455.0000000000001" y="330" as="targetPoint" />
          </mxGeometry>
        </mxCell>
        <mxCell id="sT0h8LbhQ2FhiDjcuQEl-34" value="" style="endArrow=classic;html=1;rounded=0;entryX=-0.043;entryY=-0.012;entryDx=0;entryDy=0;entryPerimeter=0;exitX=1;exitY=0;exitDx=0;exitDy=5;exitPerimeter=0;" parent="1" source="sT0h8LbhQ2FhiDjcuQEl-30" target="sT0h8LbhQ2FhiDjcuQEl-31" edge="1">
          <mxGeometry width="50" height="50" relative="1" as="geometry">
            <mxPoint x="460" y="350" as="sourcePoint" />
            <mxPoint x="510" y="300" as="targetPoint" />
          </mxGeometry>
        </mxCell>
        <mxCell id="sT0h8LbhQ2FhiDjcuQEl-35" value="学生データ登録()" style="text;html=1;align=center;verticalAlign=middle;whiteSpace=wrap;rounded=0;" parent="1" vertex="1">
          <mxGeometry x="460" y="310" width="110" height="30" as="geometry" />
        </mxCell>
        <mxCell id="iNegNZBtGHHFDSgE-SrE-1" value="起動()" style="text;html=1;align=center;verticalAlign=middle;whiteSpace=wrap;rounded=0;" vertex="1" parent="1">
          <mxGeometry x="359" y="310" width="110" height="30" as="geometry" />
        </mxCell>
        <mxCell id="iNegNZBtGHHFDSgE-SrE-2" value="学生データ入力()" style="text;html=1;align=center;verticalAlign=middle;whiteSpace=wrap;rounded=0;" vertex="1" parent="1">
          <mxGeometry x="125" y="300" width="110" height="30" as="geometry" />
        </mxCell>
      </root>
    </mxGraphModel>
  </diagram>
</mxfile>
